<?xml version="1.0" encoding="UTF-8" standalone="no"?>
<!-- Created with Inkscape (http://www.inkscape.org/) -->

<svg viewBox="0 0 400 400" version="1.1" id="svg1" xml:space="preserve"
    xmlns="http://www.w3.org/2000/svg"
    xmlns:svg="http://www.w3.org/2000/svg"
    xmlns:rdf="http://www.w3.org/1999/02/22-rdf-syntax-ns#"
    xmlns:cc="http://creativecommons.org/ns#">
    <style type="text/css">
        <![CDATA[
            @keyframes rainbow {
                0% {
                    fill: #ff0000;
                }
                16.67% {
                    fill: #ffff00;
                }
                33.33% {
                    fill: #00ff00;
                }
                50% {
                    fill: #00ffff;
                }
                66.67% {
                    fill: #0000ff;
                }
                83.33% {
                    fill: #ff00ff;
                }
                100% {
                    fill: #ff0000;
                }
            }

            #svg1 {
                animation: 30s linear infinite rainbow;
            }
        ]]>
    </style>
    <path id="rect2" d="M 270.86328,20.890625 195.61328,64.335938 195.61914,64.345703 H 195.61133 V 150.7168 A 49.079754,49.079754 0 0 0 194.05664,150.88281 49.079754,49.079754 0 0 0 192.02344,151.25586 49.079754,49.079754 0 0 0 187.65234,152.20703 49.079754,49.079754 0 0 0 185.32422,152.93164 49.079754,49.079754 0 0 0 181.43164,154.38477 49.079754,49.079754 0 0 0 179.16797,155.40234 49.079754,49.079754 0 0 0 175.42773,157.44531 49.079754,49.079754 0 0 0 173.46094,158.63477 49.079754,49.079754 0 0 0 169.51758,161.58398 49.079754,49.079754 0 0 0 168.24414,162.58203 49.079754,49.079754 0 0 0 163.64258,167.18555 49.079754,49.079754 0 0 0 162.6582,168.44141 49.079754,49.079754 0 0 0 159.71289,172.375 49.079754,49.079754 0 0 0 158.48633,174.4043 49.079754,49.079754 0 0 0 156.47461,178.08594 49.079754,49.079754 0 0 0 155.44727,180.37109 49.079754,49.079754 0 0 0 153.99414,184.26758 49.079754,49.079754 0 0 0 153.27148,186.58203 49.079754,49.079754 0 0 0 152.32031,190.95898 49.079754,49.079754 0 0 0 151.94922,192.98828 49.079754,49.079754 0 0 0 151.48242,199.49609 49.079754,49.079754 0 0 0 151.91797,205.56836 49.079754,49.079754 0 0 0 152.65234,209.5625 49.079754,49.079754 0 0 0 153.04102,211.3457 49.079754,49.079754 0 0 0 154.49023,216.05664 49.079754,49.079754 0 0 0 154.70312,216.62891 49.079754,49.079754 0 0 0 155.91797,219.88477 L 86.544922,259.9375 16.097656,219.26367 11.351562,227.48633 86.599609,270.93164 86.605469,270.92188 86.611328,270.93359 160.81641,228.0918 A 49.079754,49.079754 0 0 0 189.58984,247.20898 49.079754,49.079754 0 0 0 190.72656,247.45508 49.079754,49.079754 0 0 0 194.82031,248.16602 49.079754,49.079754 0 0 0 200.5625,248.57617 49.079754,49.079754 0 0 0 202.79297,248.52148 49.079754,49.079754 0 0 0 203.66992,248.46484 49.079754,49.079754 0 0 0 205.05078,248.36328 49.079754,49.079754 0 0 0 205.99414,248.26367 49.079754,49.079754 0 0 0 207.32812,248.09766 49.079754,49.079754 0 0 0 208.20898,247.9668 49.079754,49.079754 0 0 0 209.6543,247.7168 49.079754,49.079754 0 0 0 210.45898,247.56055 49.079754,49.079754 0 0 0 211.88672,247.24023 49.079754,49.079754 0 0 0 212.70117,247.04688 49.079754,49.079754 0 0 0 214.41797,246.57031 49.079754,49.079754 0 0 0 214.85938,246.44727 49.079754,49.079754 0 0 0 217.02148,245.73242 49.079754,49.079754 0 0 0 217.51367,245.54688 49.079754,49.079754 0 0 0 219.15039,244.91406 49.079754,49.079754 0 0 0 219.83594,244.62109 49.079754,49.079754 0 0 0 221.21484,244.00977 49.079754,49.079754 0 0 0 222.01758,243.62695 49.079754,49.079754 0 0 0 223.21875,243.02344 49.079754,49.079754 0 0 0 224.07617,242.56836 49.079754,49.079754 0 0 0 225.24414,241.90625 49.079754,49.079754 0 0 0 226.03711,241.44141 49.079754,49.079754 0 0 0 227.38867,240.58398 49.079754,49.079754 0 0 0 227.91016,240.24805 49.079754,49.079754 0 0 0 229.79883,238.91797 49.079754,49.079754 0 0 0 229.83398,238.89062 49.079754,49.079754 0 0 0 231.55469,237.54883 49.079754,49.079754 0 0 0 232.1543,237.04297 49.079754,49.079754 0 0 0 233.28906,236.06445 49.079754,49.079754 0 0 0 233.91602,235.48828 49.079754,49.079754 0 0 0 234.94336,234.50977 49.079754,49.079754 0 0 0 235.57617,233.87695 49.079754,49.079754 0 0 0 236.55469,232.84961 49.079754,49.079754 0 0 0 237.13086,232.22266 49.079754,49.079754 0 0 0 238.10938,231.08789 49.079754,49.079754 0 0 0 238.61523,230.48828 49.079754,49.079754 0 0 0 239.98438,228.73242 49.079754,49.079754 0 0 0 239.98633,228.72852 49.079754,49.079754 0 0 0 240.54883,227.93945 L 309.94336,268.00586 V 349.42383 H 319.43555 V 262.54297 L 319.44336,262.5293 245.28516,219.71289 A 49.079754,49.079754 0 0 0 245.6875,218.76953 49.079754,49.079754 0 0 0 245.98047,218.08398 49.079754,49.079754 0 0 0 246.61328,216.44727 49.079754,49.079754 0 0 0 246.79883,215.95508 49.079754,49.079754 0 0 0 247.51367,213.79297 49.079754,49.079754 0 0 0 247.63672,213.35156 49.079754,49.079754 0 0 0 248.11328,211.63477 49.079754,49.079754 0 0 0 248.30664,210.82031 49.079754,49.079754 0 0 0 248.62695,209.39258 49.079754,49.079754 0 0 0 248.7832,208.58789 49.079754,49.079754 0 0 0 249.0332,207.14258 49.079754,49.079754 0 0 0 249.16406,206.26172 49.079754,49.079754 0 0 0 249.33008,204.92773 49.079754,49.079754 0 0 0 249.42969,203.98438 49.079754,49.079754 0 0 0 249.53125,202.60352 49.079754,49.079754 0 0 0 249.58789,201.72656 49.079754,49.079754 0 0 0 249.64258,199.49609 49.079754,49.079754 0 0 0 249.17578,192.97461 49.079754,49.079754 0 0 0 248.55859,189.82812 49.079754,49.079754 0 0 0 247.85938,186.60938 49.079754,49.079754 0 0 0 246.66211,183.00977 49.079754,49.079754 0 0 0 245.72461,180.49805 49.079754,49.079754 0 0 0 243.9375,176.7832 49.079754,49.079754 0 0 0 243.3418,175.54492 L 243.28125,175.58008 A 49.079754,49.079754 0 0 0 220.86133,154.82031 V 154.76367 H 220.71094 A 49.079754,49.079754 0 0 0 211.3125,151.73633 49.079754,49.079754 0 0 0 210.09766,151.47266 49.079754,49.079754 0 0 0 206.21875,150.82227 49.079754,49.079754 0 0 0 205.10352,150.69727 V 69.818359 L 275.60938,29.111328 Z M 200.5625,160.48047 A 39.015415,39.015415 0 0 1 205.84961,160.85547 39.015415,39.015415 0 0 1 206.11328,160.89258 39.015415,39.015415 0 0 1 211.36719,162.02539 V 203.01172 L 189.5293,182.15234 V 182.11719 H 180.03711 V 232.53711 A 39.015415,39.015415 0 0 1 168.80859,222.12109 L 168.17188,221.01953 168.18164,221.01367 A 39.015415,39.015415 0 0 1 167.62109,220.06445 L 165.73633,216.80078 A 39.015415,39.015415 0 0 1 164.04297,212.9707 39.015415,39.015415 0 0 1 164.00977,212.88867 39.015415,39.015415 0 0 1 162.96094,209.48438 39.015415,39.015415 0 0 1 162.45898,207.39844 39.015415,39.015415 0 0 1 161.95117,204.64062 39.015415,39.015415 0 0 1 161.54688,199.49609 39.015415,39.015415 0 0 1 162.00781,193.65039 39.015415,39.015415 0 0 1 162.4082,191.80273 39.015415,39.015415 0 0 1 163.33594,187.94336 39.015415,39.015415 0 0 1 164.13477,185.80469 39.015415,39.015415 0 0 1 165.49805,182.50781 39.015415,39.015415 0 0 1 166.67578,180.35352 39.015415,39.015415 0 0 1 168.45898,177.44141 39.015415,39.015415 0 0 1 169.95898,175.4375 39.015415,39.015415 0 0 1 172.16016,172.86133 39.015415,39.015415 0 0 1 173.92773,171.09375 39.015415,39.015415 0 0 1 176.50391,168.89258 39.015415,39.015415 0 0 1 178.50781,167.39258 39.015415,39.015415 0 0 1 181.41992,165.60938 39.015415,39.015415 0 0 1 183.57422,164.43164 39.015415,39.015415 0 0 1 186.87109,163.06836 39.015415,39.015415 0 0 1 189.00977,162.26953 39.015415,39.015415 0 0 1 192.86914,161.3418 39.015415,39.015415 0 0 1 194.7168,160.94141 39.015415,39.015415 0 0 1 200.5625,160.48047 Z M 220.86133,166.18945 A 39.015415,39.015415 0 0 1 234.61719,180.4668 L 234.61523,180.46875 A 39.015415,39.015415 0 0 1 236.74023,184.91406 39.015415,39.015415 0 0 1 236.7793,185.01367 39.015415,39.015415 0 0 1 238.26172,189.50195 39.015415,39.015415 0 0 1 238.34961,189.8457 39.015415,39.015415 0 0 1 239.22266,194.34961 39.015415,39.015415 0 0 1 239.26758,194.67383 39.015415,39.015415 0 0 1 239.57812,199.49609 39.015415,39.015415 0 0 1 239.52344,201.50195 39.015415,39.015415 0 0 1 239.4707,202.22461 39.015415,39.015415 0 0 1 239.35352,203.61328 39.015415,39.015415 0 0 1 239.27344,204.28125 39.015415,39.015415 0 0 1 239.08398,205.625 39.015415,39.015415 0 0 1 238.95312,206.40234 39.015415,39.015415 0 0 1 238.69531,207.69336 39.015415,39.015415 0 0 1 238.54492,208.39062 39.015415,39.015415 0 0 1 238.14062,209.95508 39.015415,39.015415 0 0 1 238.03125,210.36523 39.015415,39.015415 0 0 1 237.41016,212.31641 39.015415,39.015415 0 0 1 237.24023,212.77344 39.015415,39.015415 0 0 1 236.67578,214.24805 39.015415,39.015415 0 0 1 236.41602,214.85547 39.015415,39.015415 0 0 1 235.85547,216.10938 39.015415,39.015415 0 0 1 235.50977,216.82227 39.015415,39.015415 0 0 1 234.91016,217.97852 39.015415,39.015415 0 0 1 234.56055,218.62109 39.015415,39.015415 0 0 1 233.83594,219.84766 39.015415,39.015415 0 0 1 233.50391,220.39453 39.015415,39.015415 0 0 1 232.60938,221.73438 39.015415,39.015415 0 0 1 232.34375,222.12695 39.015415,39.015415 0 0 1 231.15234,223.70703 39.015415,39.015415 0 0 1 230.72656,224.22461 39.015415,39.015415 0 0 1 229.81641,225.30078 39.015415,39.015415 0 0 1 229.31836,225.84961 39.015415,39.015415 0 0 1 228.42383,226.79492 39.015415,39.015415 0 0 1 227.86133,227.35742 39.015415,39.015415 0 0 1 226.91602,228.25195 39.015415,39.015415 0 0 1 226.36719,228.75 39.015415,39.015415 0 0 1 225.29102,229.66016 39.015415,39.015415 0 0 1 224.77344,230.08594 39.015415,39.015415 0 0 1 223.18555,231.2832 39.015415,39.015415 0 0 1 222.80078,231.54297 39.015415,39.015415 0 0 1 221.46094,232.4375 39.015415,39.015415 0 0 1 220.91406,232.76953 39.015415,39.015415 0 0 1 219.6875,233.49414 39.015415,39.015415 0 0 1 219.04492,233.84375 39.015415,39.015415 0 0 1 217.88867,234.44336 39.015415,39.015415 0 0 1 217.17188,234.79102 39.015415,39.015415 0 0 1 215.95703,235.33398 39.015415,39.015415 0 0 1 215.29883,235.61523 39.015415,39.015415 0 0 1 213.85547,236.16797 39.015415,39.015415 0 0 1 213.38281,236.34375 39.015415,39.015415 0 0 1 211.43164,236.96484 39.015415,39.015415 0 0 1 211.02148,237.07422 39.015415,39.015415 0 0 1 209.45703,237.47852 39.015415,39.015415 0 0 1 208.75977,237.62891 39.015415,39.015415 0 0 1 207.46875,237.88672 39.015415,39.015415 0 0 1 206.69141,238.01758 39.015415,39.015415 0 0 1 205.34766,238.20703 39.015415,39.015415 0 0 1 204.67969,238.28711 39.015415,39.015415 0 0 1 203.29102,238.4043 39.015415,39.015415 0 0 1 202.56836,238.45703 39.015415,39.015415 0 0 1 200.5625,238.51172 39.015415,39.015415 0 0 1 195.65039,238.125 39.015415,39.015415 0 0 1 192.76172,237.62305 39.015415,39.015415 0 0 1 191.32617,237.2793 39.015415,39.015415 0 0 1 189.5293,236.76172 V 196.24219 L 211.36719,217.40625 V 217.47656 H 211.43945 L 211.44531,217.48242 V 217.47656 H 220.86133 Z" />
</svg>
