<?xml version="1.0" encoding="UTF-8" standalone="no"?>
<!-- Created with Inkscape (http://www.inkscape.org/) -->

<svg viewBox="0 0 400 400" version="1.1" id="svg1" xml:space="preserve"
    xmlns="http://www.w3.org/2000/svg"
    xmlns:svg="http://www.w3.org/2000/svg"
    xmlns:rdf="http://www.w3.org/1999/02/22-rdf-syntax-ns#"
    xmlns:cc="http://creativecommons.org/ns#">
    <style>
        <![CDATA[
            @keyframes rainbow {
                0% {
                    fill: #f00;
                }
                16.67% {
                    fill: #ff0;
                }
                33.33% {
                    fill: #0f0;
                }
                50% {
                    fill: #0ff;
                }
                66.67% {
                    fill: #00f;
                }
                83.33% {
                    fill: #f0f;
                }
                100% {
                    fill: #f00;
                }
            }

            #svg1 {
                transition: ease-out 2s;
            
            }

            @media (hover: hover) and (pointer: fine) {
                #svg1:hover {
                    animation: 20s linear infinite rainbow;
                    transform: rotate(1080deg);
                }
            }
        ]]>
    </style>
    <path id="rect5" d="M 270.86328,20.890625 195.61328,64.335938 195.61914,64.345703 H 195.61133 V 150.7168 A 49.079754,49.079754 0 0 0 151.48242,199.49609 49.079754,49.079754 0 0 0 156.04102,219.89258 L 86.677734,259.93945 16.226562,219.26367 11.480469,227.48633 86.730469,270.93164 86.753906,270.89062 86.771484,270.92188 169.55664,223.125 165.25,215.66211 A 39.015415,39.015415 0 0 1 161.54688,199.49609 39.015415,39.015415 0 0 1 200.5625,160.48047 39.015415,39.015415 0 0 1 211.36719,162.02344 V 203.01172 L 189.5293,182.15234 V 182.11719 H 189.49219 L 189.48047,182.10547 V 182.11719 H 180.03711 V 243.80078 L 179.97852,243.92969 A 49.079754,49.079754 0 0 0 200.5625,248.57617 49.079754,49.079754 0 0 0 240.54883,227.93945 L 309.94336,268.00586 V 349.42383 H 319.43555 V 262.54297 L 319.44336,262.5293 245.28516,219.71289 A 49.079754,49.079754 0 0 0 249.64258,199.49609 49.079754,49.079754 0 0 0 243.06445,175.21289 L 234.44141,180.17578 A 39.015415,39.015415 0 0 1 239.57812,199.49609 39.015415,39.015415 0 0 1 200.5625,238.51172 39.015415,39.015415 0 0 1 189.5293,236.75977 V 196.24219 L 211.36719,217.40625 V 217.47656 H 211.43945 L 211.44531,217.48242 V 217.47656 H 220.86133 V 154.76367 H 220.40039 A 49.079754,49.079754 0 0 0 205.10352,150.6875 V 69.818359 L 275.60938,29.111328 Z" />
</svg>
